<?xml version="1.0" encoding="utf-8"?>
<!-- Generator: Adobe Illustrator 22.0.0, SVG Export Plug-In . SVG Version: 6.00 Build 0)  -->
<svg version="1.1" id="Layer_1" xmlns="http://www.w3.org/2000/svg" xmlns:xlink="http://www.w3.org/1999/xlink" x="0px" y="0px"
	 viewBox="0 0 1000 1000" style="enable-background:new 0 0 1000 1000;" xml:space="preserve">
<style type="text/css">
	.st0{fill:#FFFFFF;}
	.st1{fill:#12B0FF;}
</style>
<g>
	<g>
		<path class="st0" d="M462.8,466.8v65.7H450v-42.6l-18.5,30.5l-1.5,0.1L411.5,490v42.4h-12.9v-65.7h13.3l18.8,31l18.7-31
			L462.8,466.8L462.8,466.8z"/>
		<path class="st0" d="M478.1,479.9c-2,0-3.7-0.7-5.2-2.2s-2.2-3.2-2.2-5.2s0.7-3.8,2.2-5.3s3.2-2.3,5.2-2.3c2.1,0,3.8,0.8,5.3,2.3
			s2.2,3.3,2.2,5.3s-0.7,3.7-2.2,5.2C481.9,479.2,480.1,479.9,478.1,479.9z M472.1,532.4v-46.9h12.1v46.9H472.1z"/>
		<path class="st0" d="M519,484.2c5.1,0,9.4,1.7,12.7,5.2c3.3,3.4,5,8.2,5,14.3v28.8h-12.1v-27.3c0-3.1-0.8-5.5-2.5-7.2
			s-3.9-2.5-6.8-2.5c-3.1,0-5.6,1-7.5,2.9s-2.8,4.8-2.8,8.7v25.3h-12.1v-46.9H505v5.3C507.9,486.4,512.6,484.2,519,484.2z"/>
		<path class="st0" d="M580.6,485.5h11.8v44.6c0,7.3-2.4,12.8-7.2,16.6s-10.6,5.7-17.3,5.7c-5.1,0-9.5-1-13.4-2.9
			c-3.8-1.9-6.8-4.8-8.9-8.5l10.3-5.9c2.4,4.4,6.5,6.6,12.3,6.6c3.8,0,6.8-1,9-3s3.3-4.8,3.3-8.5v-5.1c-3.6,4.8-8.6,7.1-15,7.1
			c-6.6,0-12.2-2.3-16.6-7c-4.5-4.7-6.7-10.3-6.7-17c0-6.6,2.3-12.3,6.8-17s10-7,16.6-7c6.4,0,11.4,2.4,15,7.1L580.6,485.5
			L580.6,485.5z M558,517.5c2.5,2.4,5.6,3.6,9.4,3.6c3.8,0,7-1.2,9.4-3.6c2.5-2.4,3.7-5.5,3.7-9.2s-1.2-6.7-3.7-9.1
			s-5.6-3.6-9.4-3.6c-3.8,0-7,1.2-9.4,3.6c-2.5,2.4-3.7,5.5-3.7,9.1C554.3,512,555.6,515.1,558,517.5z"/>
		<path class="st0" d="M641,526.6c-4.8,4.8-10.7,7.2-17.6,7.2c-6.9,0-12.8-2.4-17.6-7.2s-7.2-10.6-7.2-17.6s2.4-12.8,7.2-17.6
			c4.8-4.8,10.6-7.2,17.6-7.2c6.9,0,12.8,2.4,17.6,7.2s7.2,10.6,7.2,17.6C648.2,516,645.8,521.8,641,526.6z M614.3,518.3
			c2.4,2.4,5.4,3.7,9.1,3.7c3.6,0,6.7-1.2,9.1-3.7c2.4-2.4,3.7-5.5,3.7-9.3s-1.2-6.8-3.7-9.3c-2.4-2.4-5.5-3.7-9.1-3.7
			s-6.6,1.2-9.1,3.7c-2.4,2.4-3.6,5.5-3.6,9.3S611.9,515.8,614.3,518.3z"/>
		<path class="st0" d="M681,466.8c9,0,16.5,3.2,22.6,9.5c6,6.3,9.1,14.1,9.1,23.4s-3,17-9.1,23.4c-6,6.3-13.6,9.5-22.6,9.5h-26
			v-65.7L681,466.8L681,466.8z M681,520c5.7,0,10.3-1.9,13.9-5.7c3.6-3.8,5.3-8.7,5.3-14.8c0-6.1-1.8-11-5.3-14.8
			c-3.6-3.8-8.2-5.7-13.9-5.7h-13.1v41H681z"/>
		<path class="st0" d="M729.1,514c1.6,5.9,6,8.8,13.2,8.8c4.6,0,8.1-1.6,10.5-4.7l9.8,5.6c-4.6,6.7-11.4,10-20.4,10
			c-7.8,0-14-2.3-18.7-7s-7-10.6-7-17.7c0-7.1,2.3-13,6.9-17.7c4.6-4.7,10.6-7.1,17.8-7.1c6.9,0,12.6,2.4,17,7.1
			c4.5,4.8,6.7,10.6,6.7,17.6c0,1.6-0.2,3.2-0.5,5h-35.3V514z M729,504.6h23.9c-0.7-3.2-2.1-5.6-4.3-7.1c-2.2-1.6-4.6-2.3-7.4-2.3
			c-3.3,0-5.9,0.8-8.1,2.5C731.1,499.2,729.6,501.6,729,504.6z"/>
		<path class="st0" d="M780.4,498.9c0,1.3,0.8,2.3,2.5,3c1.7,0.8,3.7,1.5,6.1,2.1c2.4,0.6,4.8,1.3,7.1,2.3c2.4,0.9,4.4,2.4,6,4.5
			c1.7,2.1,2.5,4.8,2.5,8c0,4.8-1.8,8.5-5.4,11.1c-3.6,2.6-8.1,3.9-13.5,3.9c-9.6,0-16.2-3.7-19.7-11.2l10.5-5.9
			c1.4,4.1,4.4,6.1,9.2,6.1c4.3,0,6.5-1.3,6.5-4c0-1.3-0.8-2.3-2.5-3c-1.7-0.8-3.7-1.5-6-2.1c-2.4-0.6-4.8-1.4-7.1-2.3
			c-2.4-0.9-4.4-2.4-6-4.5c-1.7-2-2.5-4.6-2.5-7.6c0-4.6,1.7-8.3,5.1-10.9c3.4-2.7,7.6-4,12.7-4c3.8,0,7.3,0.9,10.4,2.6
			c3.1,1.7,5.6,4.2,7.4,7.4l-10.3,5.6c-1.5-3.2-4-4.8-7.5-4.8c-1.6,0-2.9,0.3-3.9,1C780.9,496.7,780.4,497.7,780.4,498.9z"/>
		<path class="st0" d="M853.2,532.4h-14.1L822,511.1v21.3h-12v-65.7h12.1v39.5l16.1-20.7h14.4l-18.8,23.2L853.2,532.4z"/>
	</g>
	<path class="st1" d="M358.8,479.1c-2.7-6.3-6.5-11.9-11.5-16.6s-10.9-8.4-17.7-11s-14.4-4-22.6-4h-35.2H266h-14.4H245h-18.3
		l-27.6,44.4l-27.6-44.4h-24.9v105h22.8v-68.1l29.3,44.4h0.6L229,484v68.5h16.2h6.6h9.8c1.7-0.7,3.2-1.8,4.6-3.1
		c2.6-2.5,4.5-6.1,5-11.3c0.4-3.8-1.8-8.8-5-13.8c-4.4-7-10.7-14-14.4-17.9c-1.8-1.9-2.9-3-2.9-3s-1.6-1.5-3.7-4
		c-5.5-6.7-14.3-20.5-5.7-32.7c1.9-2.6,3.8-4.7,5.7-6.3c2.2-1.8,4.4-3,6.6-3.7c5.7-1.8,10.9-0.3,14.4,2c1.4,0.9,2.5,2,3.2,3
		c1.2,1.7,2,3,2.6,4.1c0.4,0.8,0.7,1.4,0.9,1.8c0.3,0.7,0,1.4-0.5,1.8c-0.1,0.1-0.2,0.1-0.3,0.2c-0.5,0.3-1.2,0.2-1.7-0.2l-3.2-2.7
		c-0.3-0.2-0.6-0.4-0.9-0.5c-1-0.4-2.2-0.2-3.1,0.5c-1.4,1.2-1.5,3.3-0.1,4.6l0.1,0.1c1.5,1.4,2.3,3.4,2.2,5.5l-0.2,6L254,472
		c0,0-1.1,0.5-2.3,1.5c-2.8,2.3-6.3,7.2,0,15.3c0.4,0.6,0.9,1.1,1.5,1.7c3.7,4,8.3,8.7,12.9,13.8c2,2.2,3.9,4.5,5.8,6.8
		c7.6,9.6,13.7,20.3,12.3,31.1c-0.5,3.9-1.5,7.3-2.9,10.3h25.8c8.2,0,15.7-1.4,22.6-4c6.8-2.7,12.8-6.4,17.7-11.1
		c4.9-4.7,8.8-10.3,11.5-16.6c2.7-6.4,4-13.3,4-20.7v-0.3C362.9,492.3,361.5,485.4,358.8,479.1z M278.7,487.9
		c-2.1,4-4.7,7.3-6.8,9.6c-1.3,1.4-2.4,2.5-3.2,3.1c-0.5,0.4-1.1,0.4-1.6-0.1c-0.2-0.2-0.3-0.5-0.3-0.8l0.1-26.1
		c0-0.4-0.1-0.9-0.4-1.2l-0.5-0.6l-1.7-2.3c-0.4-0.5-0.3-1.1,0.2-1.5s1.1-0.4,1.5,0.1l0,0l3.5,3.7c0.6,0.6,1.5,0.8,2.3,0.5
		c0.3-0.1,0.6-0.3,0.9-0.6l1.3-1.7C274.1,470,283,479.7,278.7,487.9z M338.7,500.3c0,4.7-0.8,9-2.3,12.8s-3.7,7.1-6.5,9.9
		c-2.8,2.8-6.1,4.9-10,6.4s-8.2,2.3-12.9,2.3h-17.9v-63.3H307c4.7,0,9,0.8,12.9,2.3c3.9,1.6,7.2,3.7,10,6.5s4.9,6.1,6.5,10
		c1.5,3.9,2.3,8.1,2.3,12.8V500.3z"/>
</g>
</svg>
