<?xml version="1.0" encoding="utf-8"?>
<!-- Generator: Adobe Illustrator 22.0.0, SVG Export Plug-In . SVG Version: 6.00 Build 0)  -->
<svg version="1.1" id="Layer_1" xmlns="http://www.w3.org/2000/svg" xmlns:xlink="http://www.w3.org/1999/xlink" x="0px" y="0px"
	 viewBox="0 0 1000 1000" style="enable-background:new 0 0 1000 1000;" xml:space="preserve">
<style type="text/css">
	.st0{fill:#12B0FF;}
</style>
<g>
	<path class="st0" d="M743.5,451c-6.3-14.9-15.3-27.8-26.9-38.8c-11.6-11-25.4-19.6-41.4-25.8s-33.7-9.3-52.8-9.3H540h-13.6h-33.6
		h-15.5h-42.8l-64.6,104l-64.6-104H247v245.8h53.4V463.5l68.5,104h1.4l69.2-105v160.5h37.9h15.5h22.8c3.9-1.7,7.6-4.1,10.8-7.2
		c6.1-5.9,10.6-14.4,11.7-26.4c0.9-8.9-4.3-20.6-11.7-32.3c-10.4-16.4-25.1-32.9-33.6-41.9c-4.2-4.4-6.9-7.1-6.9-7.1
		s-3.7-3.5-8.6-9.4C464.6,483,444,450.6,464,422.1c4.4-6.2,8.9-11.1,13.4-14.8c5.2-4.3,10.4-7.1,15.5-8.7
		c13.3-4.3,25.5-0.7,33.6,4.7c3.2,2.2,5.8,4.6,7.4,6.9c2.9,4,4.8,7.1,6.1,9.6c1,1.8,1.6,3.2,2,4.3c0.6,1.5,0.1,3.3-1.2,4.3
		c-0.2,0.2-0.5,0.3-0.8,0.4c-1.3,0.6-2.8,0.4-4-0.6l-7.4-6.3c-0.7-0.6-1.4-1-2.2-1.3c-2.4-0.9-5.2-0.5-7.2,1.3
		c-3.3,2.8-3.5,7.8-0.4,10.8l0.2,0.2c3.5,3.3,5.4,8,5.2,12.8l-0.4,14l-25.7-25.2c0,0-2.5,1.1-5.3,3.5c-6.5,5.3-14.8,16.9,0,35.8
		c1,1.3,2.2,2.7,3.4,4.1c8.6,9.4,19.5,20.3,30.2,32.2c4.6,5.1,9.2,10.4,13.6,15.9c17.9,22.4,32,47.5,28.8,72.8
		c-1.1,9.2-3.4,17.2-6.8,24.1h60.3c19.2,0,36.8-3.2,52.8-9.5c16-6.3,29.9-15,41.4-26c11.6-11,20.6-24,26.9-39
		c6.3-15,9.5-31.1,9.5-48.5v-0.7C753,482,749.8,465.9,743.5,451z M556,471.8c-4.8,9.4-10.9,17.1-16,22.5c-3.1,3.3-5.7,5.8-7.4,7.3
		c-1.1,0.9-2.7,0.8-3.7-0.2c-0.5-0.5-0.7-1.1-0.7-1.8l0.3-61.2c0-1-0.3-2-0.9-2.8l-1.1-1.5l-4.1-5.5c-0.8-1.1-0.7-2.7,0.4-3.6
		c1.1-0.9,2.6-0.8,3.6,0.2l0.1,0.1l8.2,8.6c1.4,1.5,3.6,1.8,5.3,1.1c0.8-0.3,1.5-0.8,2-1.5l3.1-3.9
		C545.2,429.7,565.9,452.4,556,471.8z M696.5,500.7c0,11-1.8,21-5.5,29.9c-3.6,8.9-8.7,16.6-15.1,23.2c-6.4,6.6-14.2,11.6-23.3,15.1
		c-9.1,3.5-19.2,5.3-30.2,5.3h-41.8V425.9h41.8c11,0,21.1,1.8,30.2,5.4c9.1,3.7,16.9,8.7,23.3,15.3c6.4,6.6,11.5,14.4,15.1,23.5
		c3.6,9.1,5.5,19.1,5.5,29.9V500.7z"/>
</g>
</svg>
